<svg width="204" height="130" viewBox="0 0 204 130" fill="none" xmlns="http://www.w3.org/2000/svg">
<path d="M19.425 105.92C18.865 104.893 18.095 104.112 17.115 103.575C16.135 103.038 14.9917 102.77 13.685 102.77C12.2383 102.77 10.955 103.097 9.835 103.75C8.715 104.403 7.84 105.337 7.21 106.55C6.58 107.763 6.265 109.163 6.265 110.75C6.265 112.383 6.58 113.807 7.21 115.02C7.86333 116.233 8.76167 117.167 9.905 117.82C11.0483 118.473 12.3783 118.8 13.895 118.8C15.7617 118.8 17.29 118.31 18.48 117.33C19.67 116.327 20.4517 114.938 20.825 113.165H12.425V109.42H25.655V113.69C25.3283 115.393 24.6283 116.968 23.555 118.415C22.4817 119.862 21.0933 121.028 19.39 121.915C17.71 122.778 15.82 123.21 13.72 123.21C11.3633 123.21 9.22833 122.685 7.315 121.635C5.425 120.562 3.93167 119.08 2.835 117.19C1.76167 115.3 1.225 113.153 1.225 110.75C1.225 108.347 1.76167 106.2 2.835 104.31C3.93167 102.397 5.425 100.915 7.315 99.865C9.22833 98.7917 11.3517 98.255 13.685 98.255C16.4383 98.255 18.83 98.9317 20.86 100.285C22.89 101.615 24.29 103.493 25.06 105.92H19.425ZM40.6202 123.245C38.3336 123.245 36.2336 122.708 34.3202 121.635C32.4069 120.562 30.8902 119.08 29.7702 117.19C28.6502 115.277 28.0902 113.118 28.0902 110.715C28.0902 108.335 28.6502 106.2 29.7702 104.31C30.8902 102.397 32.4069 100.903 34.3202 99.83C36.2336 98.7567 38.3336 98.22 40.6202 98.22C42.9302 98.22 45.0302 98.7567 46.9202 99.83C48.8336 100.903 50.3386 102.397 51.4352 104.31C52.5552 106.2 53.1152 108.335 53.1152 110.715C53.1152 113.118 52.5552 115.277 51.4352 117.19C50.3386 119.08 48.8336 120.562 46.9202 121.635C45.0069 122.708 42.9069 123.245 40.6202 123.245ZM40.6202 118.87C42.0902 118.87 43.3852 118.543 44.5052 117.89C45.6252 117.213 46.5002 116.257 47.1302 115.02C47.7602 113.783 48.0752 112.348 48.0752 110.715C48.0752 109.082 47.7602 107.658 47.1302 106.445C46.5002 105.208 45.6252 104.263 44.5052 103.61C43.3852 102.957 42.0902 102.63 40.6202 102.63C39.1502 102.63 37.8436 102.957 36.7002 103.61C35.5802 104.263 34.7052 105.208 34.0752 106.445C33.4452 107.658 33.1302 109.082 33.1302 110.715C33.1302 112.348 33.4452 113.783 34.0752 115.02C34.7052 116.257 35.5802 117.213 36.7002 117.89C37.8436 118.543 39.1502 118.87 40.6202 118.87ZM71.7407 118.345H62.0107L60.4007 123H55.2557L64.0407 98.535H69.7457L78.5307 123H73.3507L71.7407 118.345ZM70.4107 114.425L66.8757 104.205L63.3407 114.425H70.4107ZM86.7144 119.115H94.7644V123H81.8144V98.57H86.7144V119.115ZM111.739 110.47C113.116 110.727 114.247 111.415 115.134 112.535C116.021 113.655 116.464 114.938 116.464 116.385C116.464 117.692 116.137 118.847 115.484 119.85C114.854 120.83 113.932 121.6 112.719 122.16C111.506 122.72 110.071 123 108.414 123H97.8789V98.57H107.959C109.616 98.57 111.039 98.8383 112.229 99.375C113.442 99.9117 114.352 100.658 114.959 101.615C115.589 102.572 115.904 103.657 115.904 104.87C115.904 106.293 115.519 107.483 114.749 108.44C114.002 109.397 112.999 110.073 111.739 110.47ZM102.779 108.65H107.259C108.426 108.65 109.324 108.393 109.954 107.88C110.584 107.343 110.899 106.585 110.899 105.605C110.899 104.625 110.584 103.867 109.954 103.33C109.324 102.793 108.426 102.525 107.259 102.525H102.779V108.65ZM107.714 119.01C108.904 119.01 109.826 118.73 110.479 118.17C111.156 117.61 111.494 116.817 111.494 115.79C111.494 114.74 111.144 113.923 110.444 113.34C109.744 112.733 108.799 112.43 107.609 112.43H102.779V119.01H107.714ZM135.349 118.345H125.619L124.009 123H118.864L127.649 98.535H133.354L142.139 123H136.959L135.349 118.345ZM134.019 114.425L130.484 104.205L126.949 114.425H134.019ZM166.318 123H161.418L150.323 106.235V123H145.423V98.535H150.323L161.418 115.335V98.535H166.318V123ZM184.95 123L176.06 112.115V123H171.16V98.57H176.06V109.525L184.95 98.57H190.865L180.785 110.68L191.145 123H184.95Z" fill="white"/>
<path d="M134.381 32.0125C132.661 27.8613 130.123 24.0489 126.849 20.7752C120.472 14.3982 112.046 10.8114 103.056 10.6309C105.935 14.6634 107.492 19.3552 107.728 24.103C108.745 24.3592 109.739 24.69 110.706 25.0897C113.323 26.1736 115.726 27.7727 117.789 29.8356C121.916 33.9616 124.188 39.4481 124.188 45.2836C124.188 51.1187 121.916 56.6057 117.789 60.7316C113.663 64.859 108.176 67.1307 102.341 67.1307C96.5053 67.1307 91.0192 64.859 86.8928 60.7316C84.0251 57.8639 82.1225 54.3905 81.1856 50.7194C76.4315 50.4963 71.7306 48.95 67.6895 46.076C67.8891 55.0388 71.4731 63.4328 77.8324 69.7921C84.3789 76.3395 93.0826 79.9441 102.34 79.9441C111.598 79.9441 120.302 76.3395 126.848 69.7921C133.396 63.2456 137 54.5428 137 45.2841C137.001 40.6555 136.101 36.1643 134.381 32.0125ZM80.8686 41.2961C81.6428 37.0945 83.6507 33.0787 86.8933 29.8356C90.0507 26.6783 94.0047 24.6067 98.3025 23.8072C97.9564 20.2462 96.4215 16.7805 93.6998 14.0587C93.0477 13.4067 92.3516 12.8212 91.6215 12.306C86.4782 13.9707 81.7668 16.8417 77.8328 20.7757C73.8798 24.7288 70.9996 29.4684 69.3378 34.6409C69.853 35.3638 70.4322 36.048 71.0714 36.6886C73.806 39.4213 77.2909 40.9591 80.8686 41.2961Z" fill="url(#paint0_linear_1_1450)"/>
<path d="M107.727 24.1029C105.987 23.6634 104.182 23.4365 102.341 23.4365C100.971 23.4365 99.6202 23.5619 98.3018 23.8066C98.7513 28.4093 97.2164 33.1706 93.699 36.688C90.1945 40.1925 85.4548 41.7288 80.8674 41.2955C80.2934 44.4156 80.3987 47.6366 81.1853 50.7184C81.585 50.7375 81.9848 50.7466 82.3846 50.7466C88.8846 50.7466 95.3876 48.2724 100.336 43.324C105.284 38.3742 107.759 31.8741 107.759 25.3736C107.76 24.9499 107.75 24.5257 107.727 24.1029ZM82.3855 9.38025C84.4346 9.38025 86.4832 9.76996 88.4092 10.5503C89.529 11.0037 90.6091 11.5883 91.6217 12.3059C95.0376 11.199 98.6445 10.6236 102.341 10.6236C102.58 10.6236 102.819 10.626 103.056 10.6312C102.253 9.50617 101.347 8.43232 100.337 7.42262C90.4391 -2.47421 74.3338 -2.47421 64.4356 7.42262C59.6408 12.2174 57 18.5934 57 25.374C57 32.1546 59.6408 38.5298 64.4356 43.3245C65.4596 44.3471 66.5488 45.2644 67.6901 46.0754C67.6839 45.8126 67.681 45.5473 67.681 45.2836C67.681 41.6163 68.246 38.0352 69.338 34.6408C67.4187 31.9526 66.3846 28.743 66.3846 25.374C66.3846 21.0997 68.0492 17.081 71.0716 14.0587C74.1902 10.9396 78.2879 9.38025 82.3855 9.38025Z" fill="url(#paint1_linear_1_1450)"/>
<defs>
<linearGradient id="paint0_linear_1_1450" x1="137" y1="45.2874" x2="67.6895" y2="45.2874" gradientUnits="userSpaceOnUse">
<stop stop-color="#00FFE5"/>
<stop offset="1" stop-color="#0066FF"/>
</linearGradient>
<linearGradient id="paint1_linear_1_1450" x1="107.759" y1="25.3733" x2="57" y2="25.3733" gradientUnits="userSpaceOnUse">
<stop stop-color="#00FFE5"/>
<stop offset="1" stop-color="#0066FF"/>
</linearGradient>
</defs>
</svg>
